<svg width="181" height="113" viewBox="0 0 181 113" fill="none" xmlns="http://www.w3.org/2000/svg">
<g clip-path="url(#clip0_7_257)">
<g clip-path="url(#clip1_7_257)">
<g clip-path="url(#clip2_7_257)">
<g clip-path="url(#clip3_7_257)">
<g clip-path="url(#clip4_7_257)">
<g clip-path="url(#clip5_7_257)">
<g clip-path="url(#clip6_7_257)">
<g clip-path="url(#clip7_7_257)">
<g clip-path="url(#clip8_7_257)">
<path d="M35.4504 61.4889H32.2687C32.1654 62.2447 31.9894 62.9465 31.7407 63.5943C31.4873 64.2421 31.1494 64.8008 30.727 65.2702C30.3 65.749 29.7814 66.1199 29.1713 66.3828C28.5566 66.6504 27.8315 66.7842 26.9962 66.7842C26.2266 66.7842 25.5555 66.6598 24.9829 66.4109C24.4104 66.1668 23.913 65.8265 23.4906 65.3899C23.0682 64.9674 22.7186 64.4745 22.4417 63.9112C22.1649 63.3479 21.9419 62.747 21.773 62.1085C21.5994 61.4748 21.475 60.8293 21.3999 60.1721C21.3248 59.5149 21.2873 58.8764 21.2873 58.2568V54.7289C21.2873 54.1093 21.3248 53.4708 21.3999 52.8136C21.475 52.1564 21.5994 51.5109 21.773 50.8772C21.9419 50.2481 22.1672 49.652 22.4488 49.0886C22.7303 48.53 23.0823 48.0371 23.5047 47.6099C23.9176 47.1874 24.4127 46.8541 24.99 46.61C25.5719 46.3612 26.2406 46.2368 26.9962 46.2368C27.8315 46.2368 28.5566 46.3776 29.1713 46.6593C29.7814 46.9409 30.3 47.3282 30.727 47.8211C31.1494 48.314 31.4873 48.8868 31.7407 49.5393C31.9894 50.1918 32.1654 50.896 32.2687 51.6518H35.4504C35.3144 50.4594 35.0304 49.3703 34.5987 48.3845C34.1716 47.3986 33.6014 46.5513 32.8881 45.8424C32.1795 45.143 31.3324 44.6008 30.3469 44.2158C29.3614 43.8309 28.2445 43.6384 26.9962 43.6384C25.9544 43.6384 25.0134 43.7863 24.1734 44.082C23.3381 44.3731 22.5943 44.7768 21.9419 45.2932C21.2802 45.8096 20.7101 46.4199 20.2314 47.124C19.7574 47.8282 19.3655 48.5934 19.0558 49.4196C18.7367 50.2458 18.4997 51.1096 18.3448 52.0109C18.19 52.9169 18.1055 53.8347 18.0914 54.7642V58.2568C18.1055 59.1816 18.19 60.097 18.3448 61.003C18.4997 61.909 18.7367 62.7751 19.0558 63.6014C19.3655 64.4276 19.7574 65.1904 20.2314 65.8899C20.7101 66.5893 21.2802 67.1949 21.9419 67.7066C22.5943 68.223 23.3428 68.6291 24.1875 68.9248C25.0275 69.2159 25.9638 69.3614 26.9962 69.3614C28.1976 69.3614 29.2887 69.1689 30.2695 68.784C31.2503 68.399 32.1021 67.8568 32.8248 67.1574C33.5334 66.472 34.1106 65.6458 34.5564 64.6787C35.0023 63.707 35.3003 62.6437 35.4504 61.4889ZM56.6389 57.947V55.0881C56.6295 54.1961 56.5521 53.2925 56.4066 52.377C56.2658 51.4569 56.0452 50.5744 55.7449 49.7294C55.4351 48.8797 55.048 48.0864 54.5834 47.3493C54.1188 46.6076 53.5674 45.9622 52.9291 45.4129C52.2862 44.8637 51.5471 44.4318 50.7117 44.1173C49.8764 43.798 48.9425 43.6384 47.9101 43.6384C46.8777 43.6384 45.9461 43.798 45.1155 44.1173C44.2848 44.4318 43.548 44.8637 42.9051 45.4129C42.2669 45.9762 41.7155 46.6264 41.2509 47.3634C40.7863 48.1051 40.4038 48.8985 40.1035 49.7435C39.7984 50.5932 39.5732 51.4734 39.4277 52.3841C39.2822 53.2948 39.2048 54.1961 39.1954 55.0881V57.947C39.2048 58.8389 39.2845 59.7379 39.4347 60.6439C39.5849 61.5499 39.8148 62.4278 40.1246 63.2774C40.4202 64.1224 40.8027 64.9158 41.272 65.6575C41.746 66.3945 42.3021 67.0377 42.9403 67.5869C43.5832 68.1408 44.32 68.5751 45.1507 68.8896C45.9813 69.2041 46.9128 69.3614 47.9453 69.3614C48.973 69.3614 49.9022 69.2041 50.7329 68.8896C51.5635 68.5751 52.3003 68.1408 52.9432 67.5869C53.5861 67.0377 54.1399 66.3969 54.6045 65.6645C55.0691 64.9322 55.4492 64.1412 55.7449 63.2915C56.0452 62.4418 56.2658 61.5616 56.4066 60.6509C56.5521 59.7402 56.6295 58.8389 56.6389 57.947ZM53.4923 55.0599V57.947C53.4829 58.5431 53.4454 59.1675 53.3797 59.82C53.3187 60.4725 53.2084 61.1133 53.0488 61.7424C52.8752 62.3855 52.6546 62.9958 52.3871 63.5732C52.1149 64.1553 51.7794 64.6623 51.3805 65.0942C50.9675 65.5448 50.4771 65.9016 49.9093 66.1645C49.3414 66.4274 48.6868 66.5588 47.9453 66.5588C47.1991 66.5588 46.5445 66.4274 45.9813 66.1645C45.4229 65.9016 44.9371 65.5448 44.5242 65.0942C44.1112 64.6623 43.7663 64.1529 43.4894 63.5661C43.2172 62.984 42.9943 62.3714 42.8206 61.7283C42.6517 61.0992 42.5297 60.4561 42.4546 59.7989C42.3795 59.1464 42.3349 58.5291 42.3208 57.947V55.0599C42.3349 54.4731 42.3795 53.8558 42.4546 53.208C42.5297 52.5601 42.6517 51.9147 42.8206 51.2715C42.9802 50.6425 43.1984 50.0392 43.4753 49.4618C43.7522 48.8844 44.0948 48.3704 44.503 47.9197C44.916 47.4878 45.4041 47.1381 45.9672 46.8705C46.5304 46.6076 47.178 46.4762 47.9101 46.4762C48.6563 46.4762 49.3086 46.6053 49.867 46.8635C50.4302 47.1217 50.9182 47.4691 51.3312 47.9056C51.7442 48.3516 52.0868 48.8633 52.359 49.4407C52.6358 50.0228 52.8587 50.6284 53.0277 51.2574C53.1919 51.9006 53.3069 52.546 53.3726 53.1939C53.443 53.8417 53.4829 54.4637 53.4923 55.0599ZM61.1581 43.9835V69.0163H66.9515C68.1529 69.007 69.2722 68.8638 70.3093 68.5868C71.3464 68.3098 72.278 67.9155 73.1039 67.4038C73.8829 66.9109 74.5869 66.3147 75.2157 65.6152C75.8446 64.9158 76.3655 64.1365 76.7785 63.2774C77.182 62.4512 77.4894 61.5452 77.7006 60.5594C77.9118 59.5736 78.0174 58.5291 78.0174 57.4259V55.588C78.0033 54.4426 77.886 53.3652 77.6654 52.3559C77.4401 51.3466 77.1163 50.4195 76.694 49.5745C76.2247 48.5746 75.5982 47.6944 74.8145 46.9339C74.0261 46.1734 73.1227 45.5584 72.1043 45.089C71.3722 44.7416 70.5721 44.474 69.7039 44.2863C68.8404 44.0985 67.9229 43.9976 66.9515 43.9835H61.1581ZM64.3892 66.418V46.5959H66.9515C67.7399 46.61 68.4673 46.6992 69.1337 46.8635C69.7954 47.0325 70.3961 47.2649 70.9358 47.5606C71.6913 47.9643 72.3296 48.4901 72.8505 49.1379C73.3714 49.781 73.7867 50.504 74.0965 51.3067C74.3405 51.9264 74.5212 52.5953 74.6385 53.3136C74.7605 54.0271 74.8262 54.7735 74.8356 55.5528V57.4259C74.8262 58.1958 74.7628 58.9328 74.6455 59.6369C74.5329 60.3411 74.3616 60.9983 74.1317 61.6086C73.8689 62.3503 73.5122 63.0239 73.0617 63.6295C72.6065 64.2304 72.0691 64.7374 71.4497 65.1505C70.8677 65.5495 70.2014 65.8594 69.4505 66.08C68.6996 66.2959 67.8666 66.4086 66.9515 66.418H64.3892ZM85.9226 57.447H96.3689V54.7501H85.9226V46.7015H97.9528V43.9835H82.7408V69.0163H98.1077V66.3194H85.9226V57.447ZM107.315 62.5381H115.671L117.642 69.0163H120.81L112.869 43.9835H110.201L102.127 69.0163H105.302L107.315 62.5381ZM114.826 59.7707H108.174L111.525 48.9055L114.826 59.7707ZM137.289 69.0163H140.52V43.9835H137.303L137.253 62.6578L127.539 43.9835H124.308V69.0163H127.525L127.574 50.3139L137.289 69.0163ZM159.04 43.9835L153.338 56.5527L147.644 43.9835H144.018L151.804 59.6792L151.86 69.0163H154.817L154.866 59.6792L162.651 43.9835H159.04Z" fill="#6936F5"/>
</g>
</g>
</g>
</g>
</g>
</g>
</g>
<mask id="mask0_7_257" style="mask-type:luminance" maskUnits="userSpaceOnUse" x="-1" y="0" width="211" height="131">
<path d="M209.181 0.0458984H-0.216766V130.864H209.181V0.0458984Z" fill="white"/>
<path d="M169.898 37.5659H10.8445V75.434H169.898V37.5659Z" fill="black"/>
</mask>
<g mask="url(#mask0_7_257)">
<g clip-path="url(#clip9_7_257)">
<path d="M116.56 13.4385H42.3041C40.6791 13.4385 39.3603 12.1193 39.3603 10.4922C39.3603 8.86509 40.6791 7.5459 42.3041 7.5459H116.56C118.185 7.5459 119.505 8.86509 119.505 10.4922C119.505 12.1208 118.185 13.4385 116.56 13.4385Z" fill="#6936F5"/>
<path d="M71.1747 31.8368H42.3041C40.6791 31.8368 39.3603 30.5176 39.3603 28.8905C39.3603 27.2618 40.6791 25.9426 42.3041 25.9426H71.1747C72.8029 25.9426 74.1201 27.2618 74.1201 28.8905C74.1201 30.5176 72.8013 31.8368 71.1747 31.8368Z" fill="#6936F5"/>
<path d="M96.35 68.6973H42.3025C40.6775 68.6973 39.3587 67.3796 39.3587 65.751C39.3587 64.1254 40.6775 62.8047 42.3025 62.8047H96.35C97.9782 62.8047 99.2985 64.1254 99.2985 65.751C99.2985 67.3796 97.9782 68.6973 96.35 68.6973Z" fill="#6936F5"/>
<path d="M140.902 68.6973H110.253C108.628 68.6973 107.31 67.3796 107.31 65.751C107.31 64.1254 108.628 62.8047 110.253 62.8047H140.902C142.529 62.8047 143.847 64.1254 143.847 65.751C143.847 67.3796 142.529 68.6973 140.902 68.6973Z" fill="#6936F5"/>
<path d="M140.251 50.2396H42.3041C40.6791 50.2396 39.3603 48.9205 39.3603 47.2934C39.3603 45.6647 40.6791 44.3486 42.3041 44.3486H140.252C141.879 44.3486 143.199 45.6663 143.199 47.2934C143.197 48.922 141.877 50.2396 140.251 50.2396Z" fill="#6936F5"/>
<path d="M31.1993 20.5532C30.4243 20.5532 29.6508 20.25 29.0727 19.6436L22.2679 12.5287C21.1835 11.394 21.1788 9.60587 22.2601 8.46486L28.9742 1.37658C30.0946 0.194942 31.9586 0.14649 33.1399 1.26561C34.318 2.38473 34.3712 4.24941 33.2524 5.43105L28.4649 10.4827L33.3321 15.5688C34.454 16.7457 34.4118 18.6104 33.2383 19.7358C32.6649 20.2813 31.9321 20.5532 31.1993 20.5532Z" fill="#6936F5"/>
<path d="M31.1993 94.1261C30.4243 94.1261 29.6508 93.8244 29.0727 93.218L22.2679 86.1031C21.1835 84.9637 21.1788 83.1772 22.2601 82.0362L28.9742 74.9541C30.0961 73.7741 31.9587 73.724 33.1399 74.8432C34.3181 75.9639 34.3696 77.8238 33.2524 79.0055L28.4649 84.054L33.3321 89.1401C34.454 90.3186 34.4118 92.1817 33.2384 93.304C32.6649 93.8541 31.9321 94.1261 31.1993 94.1261Z" fill="#6936F5"/>
<path d="M122.263 112.543C121.535 112.543 120.805 112.274 120.236 111.733C119.055 110.616 119.007 108.75 120.125 107.568L124.911 102.521L120.047 97.4286C118.921 96.2532 118.964 94.3901 120.141 93.2632C121.316 92.1393 123.178 92.1815 124.305 93.3585L131.108 100.478C132.193 101.613 132.196 103.399 131.118 104.54L124.4 111.627C123.822 112.232 123.043 112.543 122.263 112.543Z" fill="#6936F5"/>
<path d="M149.63 75.1916C148.902 75.1916 148.174 74.9243 147.604 74.3835C146.422 73.2644 146.372 71.3997 147.491 70.2181L152.277 65.1664L147.415 60.0819C146.29 58.9065 146.333 57.0418 147.507 55.9149C148.68 54.7927 150.546 54.8317 151.671 56.0087L158.474 63.122C159.559 64.2552 159.563 66.0433 158.484 67.1843L151.769 74.271C151.19 74.8852 150.41 75.1916 149.63 75.1916Z" fill="#6936F5"/>
<path d="M79.9576 87.0346H42.3041C40.6791 87.0346 39.3603 85.7185 39.3603 84.0883C39.3603 82.4627 40.6791 81.1436 42.3041 81.1436H79.9576C81.5842 81.1436 82.903 82.4627 82.903 84.0883C82.903 85.7201 81.5826 87.0346 79.9576 87.0346Z" fill="#6936F5"/>
<path d="M140.251 87.0251H93.8078C92.1812 87.0251 90.8625 85.706 90.8625 84.0804C90.8625 82.4486 92.1812 81.1326 93.8078 81.1326H140.252C141.879 81.1326 143.199 82.4486 143.199 84.0804C143.197 85.706 141.877 87.0251 140.251 87.0251Z" fill="#6936F5"/>
<path d="M113.867 105.444H42.3041C40.6791 105.444 39.3603 104.123 39.3603 102.496C39.3603 100.867 40.6791 99.5481 42.3041 99.5481H113.869C115.497 99.5481 116.816 100.867 116.816 102.496C116.814 104.123 115.496 105.444 113.867 105.444Z" fill="#6936F5"/>
</g>
</g>
</g>
</g>
<defs>
<clipPath id="clip0_7_257">
<rect width="180.742" height="113" fill="white"/>
</clipPath>
<clipPath id="clip1_7_257">
<rect width="180.742" height="113" fill="white"/>
</clipPath>
<clipPath id="clip2_7_257">
<rect width="144.594" height="25.7229" fill="white" transform="translate(18.0742 43.6384)"/>
</clipPath>
<clipPath id="clip3_7_257">
<rect width="144.594" height="25.7229" fill="white" transform="translate(18.0742 43.6384)"/>
</clipPath>
<clipPath id="clip4_7_257">
<rect width="144.594" height="25.7229" fill="white" transform="translate(18.0742 43.6384)"/>
</clipPath>
<clipPath id="clip5_7_257">
<rect width="144.594" height="25.7229" fill="white" transform="translate(18.0742 43.6384)"/>
</clipPath>
<clipPath id="clip6_7_257">
<rect width="144.594" height="25.7229" fill="white" transform="translate(18.0742 43.6384)"/>
</clipPath>
<clipPath id="clip7_7_257">
<rect width="144.594" height="25.7229" fill="white" transform="translate(18.0742 43.6384)"/>
</clipPath>
<clipPath id="clip8_7_257">
<rect width="144.594" height="25.7229" fill="white" transform="translate(18.0742 43.6384)"/>
</clipPath>
<clipPath id="clip9_7_257">
<rect width="137.839" height="112.086" fill="white" transform="translate(21.4519 0.457275)"/>
</clipPath>
</defs>
</svg>
